/* XPM */
static char *b11b5ee039514a30e4cfefd1a2bf8442be7Rz6ozA9F9AwK7[] = {
/* columns rows colors chars-per-pixel */
"60 60 256 2 ",
"   c black",
".  c #010101",
"X  c #020202",
"o  c gray1",
"O  c #040404",
"+  c gray2",
"@  c #060606",
"#  c #070707",
"$  c gray3",
"%  c #090909",
"&  c gray4",
"*  c #0B0B0B",
"=  c #0C0C0C",
"-  c gray5",
";  c #0E0E0E",
":  c gray6",
">  c #101010",
",  c #111111",
"<  c gray7",
"1  c #131313",
"2  c gray8",
"3  c #151515",
"4  c #161616",
"5  c gray9",
"6  c #181818",
"7  c #191919",
"8  c gray10",
"9  c #1B1B1B",
"0  c gray11",
"q  c #1D1D1D",
"w  c #1E1E1E",
"e  c gray12",
"r  c #202020",
"t  c gray13",
"y  c #222222",
"u  c #232323",
"i  c gray14",
"p  c #252525",
"a  c gray15",
"s  c #272727",
"d  c #282828",
"f  c gray16",
"g  c #2A2A2A",
"h  c gray17",
"j  c #2C2C2C",
"k  c #2D2D2D",
"l  c gray18",
"z  c #2F2F2F",
"x  c gray19",
"c  c #313131",
"v  c #323232",
"b  c gray20",
"n  c #343434",
"m  c #353535",
"M  c gray21",
"N  c #373737",
"B  c gray22",
"V  c #393939",
"C  c #3A3A3A",
"Z  c gray23",
"A  c #3C3C3C",
"S  c gray24",
"D  c #3E3E3E",
"F  c #3F3F3F",
"G  c gray25",
"H  c #414141",
"J  c gray26",
"K  c #434343",
"L  c #444444",
"P  c gray27",
"I  c #464646",
"U  c gray28",
"Y  c #484848",
"T  c #494949",
"R  c gray29",
"E  c #4B4B4B",
"W  c #4C4C4C",
"Q  c gray30",
"!  c #4E4E4E",
"~  c gray31",
"^  c #505050",
"/  c #515151",
"(  c gray32",
")  c #535353",
"_  c gray33",
"`  c #555555",
"'  c #565656",
"]  c gray34",
"[  c #585858",
"{  c gray35",
"}  c #5A5A5A",
"|  c #5B5B5B",
" . c gray36",
".. c #5D5D5D",
"X. c gray37",
"o. c #5F5F5F",
"O. c #606060",
"+. c gray38",
"@. c #626262",
"#. c gray39",
"$. c #646464",
"%. c #656565",
"&. c gray40",
"*. c #676767",
"=. c #686868",
"-. c DimGray",
";. c #6A6A6A",
":. c gray42",
">. c #6C6C6C",
",. c #6D6D6D",
"<. c gray43",
"1. c #6F6F6F",
"2. c gray44",
"3. c #717171",
"4. c #727272",
"5. c gray45",
"6. c #747474",
"7. c gray46",
"8. c #767676",
"9. c #777777",
"0. c gray47",
"q. c #797979",
"w. c gray48",
"e. c #7B7B7B",
"r. c #7C7C7C",
"t. c gray49",
"y. c #7E7E7E",
"u. c gray50",
"i. c #808080",
"p. c #818181",
"a. c gray51",
"s. c #838383",
"d. c #848484",
"f. c gray52",
"g. c #868686",
"h. c gray53",
"j. c #888888",
"k. c #898989",
"l. c gray54",
"z. c #8B8B8B",
"x. c gray55",
"c. c #8D8D8D",
"v. c #8E8E8E",
"b. c gray56",
"n. c #909090",
"m. c gray57",
"M. c #929292",
"N. c #939393",
"B. c gray58",
"V. c #959595",
"C. c gray59",
"Z. c #979797",
"A. c #989898",
"S. c gray60",
"D. c #9A9A9A",
"F. c #9B9B9B",
"G. c gray61",
"H. c #9D9D9D",
"J. c gray62",
"K. c #9F9F9F",
"L. c #A0A0A0",
"P. c gray63",
"I. c #A2A2A2",
"U. c gray64",
"Y. c #A4A4A4",
"T. c #A5A5A5",
"R. c gray65",
"E. c #A7A7A7",
"W. c gray66",
"Q. c #A9A9A9",
"!. c #AAAAAA",
"~. c gray67",
"^. c #ACACAC",
"/. c gray68",
"(. c #AEAEAE",
"). c #AFAFAF",
"_. c gray69",
"`. c #B1B1B1",
"'. c #B2B2B2",
"]. c gray70",
"[. c #B4B4B4",
"{. c gray71",
"}. c #B6B6B6",
"|. c #B7B7B7",
" X c gray72",
".X c #B9B9B9",
"XX c gray73",
"oX c #BBBBBB",
"OX c #BCBCBC",
"+X c gray74",
"@X c gray",
"#X c gray75",
"$X c #C0C0C0",
"%X c #C1C1C1",
"&X c gray76",
"*X c #C3C3C3",
"=X c gray77",
"-X c #C5C5C5",
";X c #C6C6C6",
":X c gray78",
">X c #C8C8C8",
",X c gray79",
"<X c #CACACA",
"1X c #CBCBCB",
"2X c gray80",
"3X c #CDCDCD",
"4X c #CECECE",
"5X c gray81",
"6X c #D0D0D0",
"7X c gray82",
"8X c #D2D2D2",
"9X c LightGray",
"0X c gray83",
"qX c #D5D5D5",
"wX c gray84",
"eX c #D7D7D7",
"rX c #D8D8D8",
"tX c gray85",
"yX c #DADADA",
"uX c gray86",
"iX c gainsboro",
"pX c #DDDDDD",
"aX c gray87",
"sX c #DFDFDF",
"dX c gray88",
"fX c #E1E1E1",
"gX c #E2E2E2",
"hX c gray89",
"jX c #E4E4E4",
"kX c gray90",
"lX c #E6E6E6",
"zX c #E7E7E7",
"xX c gray91",
"cX c #E9E9E9",
"vX c #EAEAEA",
"bX c gray92",
"nX c #ECECEC",
"mX c gray93",
"MX c #EEEEEE",
"NX c #EFEFEF",
"BX c gray94",
"VX c #F1F1F1",
"CX c gray95",
"ZX c #F3F3F3",
"AX c #F4F4F4",
"SX c gray96",
"DX c #F6F6F6",
"FX c gray97",
"GX c #F8F8F8",
"HX c #F9F9F9",
"JX c gray98",
"KX c #FBFBFB",
"LX c gray99",
"PX c #FDFDFD",
"IX c #FEFEFE",
"UX c white",
/* pixels */
"a a a a a a a a a a a a a a a a d a p p s d s p p u u a s a d h u d a i s a i a g r d y y j a p a a a a a a a a a a a a ",
"a a a a a a a a a a a a a a a a a p i i p a s s s h l j s i p s f r p f u s j t i a g d p i i a a a a a a a a a a a a a ",
"a a a a a a a a a a a a a a a a t u s f g g g g y y q 4 3 9 t u k f d a u p f f a f u a g p i p a a a a a a a a a a a a ",
"a a a a a a a a a a a a a a a a h V ! %.q.j.N.S.`.oX%X.XP.0.J 6 , 4 h n a u d u d p p y f g t f a a a a a a a a a a a a ",
"a a a a a a a a a a a a a a a a N C S A N x j f t S ' 3.!.xXSXaXM.D 3 w e s x i a r z a s z e f a a a a a a a a a a a a ",
"a a a a a a a a a a a a a a a a p p i y t t t y l 5 2 r 4 2 ) E.IXUX*X) u u i s j e f a k S h 0 a a a a a a a a a a a a ",
"a a a a a a a a a a a a a a a a a p i i p s f f i j k a u p e 2 h D.SXUX>X` 3 k h p w s g A Y u a a a a a a a a a a a a ",
"a a a a a a a a a a a a a a a a s s s f g f p y i t u h l h f g s - ( >XUXUX~.a 8 z i k 9 p o.G a a a a a a a a a a a a ",
"i a d d s a s d s s a u s r f p g i e 7 4 e f d k h p q 5 6 e a p x e 6 Q.IXJXuXG r s p i t c g.l u a s t a f p a a a a ",
"i a s s p p a s t a f f y c y d 3 e J q.Q.:XiXbXlXlXpX;XR.e.I q 0 8 k g < J.JXUXJXI w h u j > T Z.4 a a l s s a a a a a ",
"p a a p i i p a u g t p l 0 0 c m.wXUXUXKXUXUXHXGXLXKXHXUXUXCXtXs.B 9 0 f t T.FXLXPX^ , k k f 6 Z.2.1 v u r j u a a a a ",
"a a p p p p a s s h d y 7 C ^.UXJXKXFXFXJXFXJXUXUXUXUXHXJXUXUXJXIXGXj.A 8 e u yXUXUXFXK 0 f g 7 V 2Xz s y u s s a a a a ",
"a p p a a s d d p u q 7 G.GXZXUXUXUXUXIXUXUXUXDXFXHXPXUXUXUXIXUXUXFXUXaX@.6 f Z UXBXUXpXf e k a 3 K.J.; x l 9 j a a a a ",
"a p a s d d s a a e M sXVXKXUXHXzX8X<X8XiXMXUXUXUXUXPXUXUXUXIXUXIXKXUXIXUX~.q 7 L.UXJXKX/.e i k t K NXB 0 j d i a a a a ",
"a a a s d d p y e Q NXFXUX=Xh.P j f y : w w.aXUXUXKXKXUXUXUXUXIXPXUXFXUXLXGX[.8 G KXFXUXDX$.2 a a w 4XL.> y v r a a a a ",
"s s s d d a y e @.JXUX+X( u > f d * b l.-XMXUXUXPXUXUXUXLXPXUXIXUXUXLXUXUXAXUX`.1 ,XUXDXPXiXu s h 3 g.mXz i p h a a a a ",
"p p p p t x 3 %.JXGX3.1 y f f q n M.nXUXUXIXUXKXUXUXUXUXUXUXUXUXUXUXUXUXUXUXUXUXs.j.UXDXUXUX4.7 f q T UX@.w h u a a a a ",
"a f u s h 8 ) UXtXV = b a d q -.hXSXUXJXFXIXUXUXUXUXUXUXUXUXUXUXUXUXUXUXUXUXUXUXbX%XKXUXDXIX9Xr s r x CXI.7 u f a a a a ",
"f e h p t z lX0Xg r j w s t I.KXUXUXIXUXUXUXPXJXUXUXUXUXUXUXUXUXUXUXUXUXUXUXUXUXUXKXKXUXUXFXUX_ w d 7 7XcXr e g a a a a ",
"p s i g , @XaXl i u a t d OXUXUXGXHXLXUXUXPXPXUXUXUXUXUXUXUXUXUXUXUXUXUXUXUXUXUXZXUXUXSXUXUXGXK.3 l 3 /.UXV y p a a a a ",
"i l p 4 r.FXS 5 k f p p %XGXBXUXUXUXUXKXPXUXUXUXUXUXUXUXUXUXUXUXUXUXUXUXUXUXUXUXUXPXUXKXKXUXJX9Xe d 7 G.UX_ y i a a a a ",
"i a q v GX-.; c y g 2 W.UXUXUXUXHXIXUXUXUXUXUXHXUXUXUXUXUXUXUXUXUXUXUXUXUXUXUXUXUXUXPXUXHXUXUXCXS 0 0 L.JX*.9 f a a a a ",
"u p 7 P.).& v i b 9 1.UXBXUXUXPXPXUXUXUXPXLXIXUXUXUXUXUXUXUXUXUXUXUXUXUXUXUXUXUXFXUXPXUXUXKXKXUX..5 q !.PX6.5 g a a a a ",
"d q U fXr j a d e C IXIXIXUXAXUXUXPXLXIXUXUXUXUXUXUXUXUXUXUXUXUXUXUXUXUXUXUXUXUXUXKXUXLXUXPXUXUX1.9 e (.UXt.7 s a a a a ",
"a e '.y.3 k 0 x 8 .XUXDXHXUXIXUXIXUXUXUXUXUXUXIXUXDXUXLXmX,X1XxXUXFXHXUXPXPXUXUXLXUXUXIXUXUXHXIXp.6 g qXUXy.7 a p s i d ",
"0 R 4Xs r l h 5 | AXUXJXUXPXIXUXIXUXUXUXUXUXUXIXUXIXlX8.r r 8 k -.ZXUXIXUXUXJXUXIXUXPXLXUXUXPXUXg., G CXUXd.1 d s t a l ",
"3 J.g.< g t z 7 .XUXKXUXBXUXUXGXIXUXUXUXUXUXUXIXFXgXN > m g f s 6 S pXHXGXUXUXUXPXUXUXUXUXPXGXPXl.  u.UXLXu.1 f a r p N ",
"j 1Xi z f r e Y ZXUXLXGXUXLXUXUXIXUXUXUXUXUXUXIXIX~ 1 h e y j s y 1 ` UXUXUXLXUXUXIXIXUXUXLXJXIX5.- 9XUXGX*.8 d s s r E ",
"%.K.7 f u x < b.UXUXHXLXUXGXPXUXIXUXUXUXUXUXUXIX&X> f u f N 2 f f B - ;XUXVXUXUXUXIXLXLXLXUXUXUXK X.UXFXUXR w a g d y 2.",
"Z.X.r u u j w 8XUXNXUX{.qXUXUXFXIXUXUXUXUXUXUXIX6.q k a d 0 l p s 7 w e.LXUXUXUXUXPXUXUXIXUXKXMXS <XUXLXFXb e a d q C l.",
"J.m 0 h s q D FXUXGXgXP DXUXPXUXIXUXUXUXUXUXUXIX9.4 f u u i f t a n < u.UXUXZXUXKXIXUXUXUXUXSXyXB.UXFXUX#Xr p a p 6 *.4.",
"c.0 z t d r | PXJXIX| ] UXJXUXUXIXUXUXUXUXUXUXIXh.5 j d y l 0 f p g 3 m.IXFXUXLXUXUXUXKXHXUXUXlXIXUXHXIXi.1 z a s w v.P ",
"*.y u i k 1 t.IXUX:X= f.LXUXPXUXUXUXUXUXUXUXUXUX<X7 a a u d t f w v 2 rXUXFXUXIXIXIXUXIXLXUXUXUXUXJXPXAXA 8 d s y S S.y ",
"W t i u g 5 j.UXKXf.$ m.UXKXJXUXUXUXUXUXUXUXUXUXUX..5 l e f t i k & 6.SXUXUXLXUXUXLXLXUXUXUXKXJXPXKXUX!.7 v j g 6 i.u.6 ",
"x u s u a 8 N.UXnXG ; F.UXKXUXUXUXUXUXUXUXUXUXUXDXGX_ 6 w p r p 1 :.VXUXGXLXUXKXIXUXUXUXUXLXPXUXUXLXPX( 1 y u d y 8XB r ",
"u s s a a 8 V.UX5Xt 5 Z.KXUXUXIXUXUXUXUXUXUXUXUXUXLXLXK.H n S I D.GXUXIXUXKXPXIXLXUXUXGXKXUXUXUXJXUXU.0 h t l 3 h.^.: j ",
"p f p d d 8 n.UXW.9 7 l.JXUXUXKXUXUXUXUXUXUXUXUXKXHXUXUXUXcXSXIXUXUXDXUXIXUXHXUXUXUXLXLXUXUXIXSXUXbXv 6 l v u z dXn a p ",
"f a y f d 9 g.UXx.8 7 9.UXUXHXUXUXUXUXUXUXUXUXUXIXUXUXDXUXUXAXUXAXCXUXUXGXUXUXKXUXHXPXUXUXPXUXUXUX1.0 f y 9 2 oXM.3 x w ",
"d i p s i 9 e.UXd.8 r _ UXUXGXUXUXUXUXUXUXUXUXUXUXUXBXUXUXJXLXHXUXUXLXUXUXGXUXUXUXJXUXUXDXLXUXCXA.= h j t 7 6.BXu z i y ",
"s u f a r 8 4.PXs.6 d x BXUXKXUXUXUXUXUXUXUXUXUXUXUXUXJXJXUXUXUXKXUXIXUXJXUXUXIXUXPXUXIXGXUXAX(.5 j y a e J IX1.t q g a ",
"s i a s f w Y UXS.2 s q 3XUXFXUXLXUXKXUXLXUXGXUXIXIXUXUXUXUXUXUXKXIXUXIXLXUXUXJXUXGXUXAXUXUXD.e s f s r M FX/.5 a a a a ",
"a a s a s i c AX+X6 z 1 9.UXUXUXUXHXUXHXUXHXUXJXIXIXUXUXUXUXUXUXUXUXUXPXUXPXKXUXUXCXDXUXGXy.0 j l u 4 F CXhXd t a a a a ",
"a d a p a f 8 >XtXr a a G DXHXIXIXJXiXUXFXUXUXGXIXIXUXUXUXUXUXUXUXCXDXUXUXUXUXAXHXUXUX6X .t j t w 8  .mXUXP w u a a a a ",
"s s p i s f 3 i.UXN 9 p y ~.UXIXKXUX:.+XUXGXGXUXIXIXUXUXUXUXUXUXHXUXUXKXUXKXFXUXLXNXd.y 8 p t q z V.PXUX] r d f a a a a ",
"d u p i f i t N UX:.0 u 7 P UXKXUXKXC.q xXUXJXJXIXIXUXUXUXUXUXUXUXKXUXUXJXPXVX4Xu.x 3 f i < x 3.wXCXUXO.r i p d a a a a ",
"f t p p f u j < .X|.1 c s 6 L.UXKXLXbXq D sXGXUXIXIXUXUXUXUXUXUXJXUXJXLXUX7XO.% : > f N ` H.iXPXUXVX} * f c i y a a a a ",
"s t a a i d h 6  .aXx u d 9 A aXUXDXGXu., N 3XKXIXIXUXUXUXUXUXUXUXPXUXUXUXIXgX X X.X1XMXIXUXUXPX@XG , v j 2 j f a a a a ",
"a u s a r k i h - &Xs.< z s w X.ZXUXUXkXz 9 u v.IXIXUXUXUXUXUXUXPXUXUXLXUXUXUXUXPXUXKXUXKXUXAXM.d e g r g k u u a a a a ",
"a a a a a a a a 7 Q :Xs p h f 8 i.UXZXIX`.r i 0 W _.UXUXLXUXAXKXPXPXUXUXUXPXPXIXFXJXPXUXHX_.Q > a a a a a a a a a a a a ",
"a a a a a a a a x , v.e.6 u l t , x.UXUXGXl.r d 4 6 / K.gXUXUXUXUXUXUXUXUXUXUXIXUXIXuXA.R 4 5 c a a a a a a a a a a a a ",
"a a a a a a a a d r f P.N i t h v 4 v.DXUXUXq.6 z c 0 : n o.g.$XsXxXVXAXNXjX6X@Xs.[ l e t f h p a a a a a a a a a a a a ",
"a a a a a a a a t l r S j.9 h i e p 2 7.FXLXLXA.3 i k f g p 9 8 p c A S Z n p 4 w 7 t s t y d a a a a a a a a a a a a a ",
"a a a a a a a a p j u e / _ a i s z u q J 4XUXJX$Xn = v e 8 n a y p u q 0 y s f f i g k a s j s a a a a a a a a a a a a ",
"a a a a a a a a d y h w a Q Z p i 6 h r w y s.nXUXFXs.e i k y d p s d s s s d f j a i p i p u 0 a a a a a a a a a a a a ",
"a a a a a a a a u d p y f p G g s z j d y u 1 n l.gXUXaXg.n 6 4 u e y g k d u u r p i u a s f l a a a a a a a a a a a a ",
"a a a a a a a a a i y k i y d z u p w s j i z e , b &.#XUXIX1Xz.~ N r 8 8 7 w p s c z h l d e u a a a a a a a a a a a a ",
"a a a a a a a a a a a a a a a a a a a a a a a a j u 7 8 v #.H.=X8X6X&X^.D.c.i.7.' T B k d d a i a a a a a a a a a a a a ",
"a a a a a a a a a a a a a a a a a a a a a a a a p d g s e 6 2 2 u x D K K F b a s u e r u s s a a a a a a a a a a a a a ",
"a a a a a a a a a a a a a a a a a a a a a a a a u p s d d f h j t i i t y s d a s s s d d d p u a a a a a a a a a a a a ",
"a a a a a a a a a a a a a a a a a a a a a a a a g s i y y i s d g h f i u p p u s s s a a s d f a a a a a a a a a a a a "
};
