/* XPM */
static char *b4b5f54de9e142e5afe34f870d60ac98JxYZRlTjnpxH59Sq[] = {
/* columns rows colors chars-per-pixel */
"60 60 256 2 ",
"   c black",
".  c #010101",
"X  c #020202",
"o  c gray1",
"O  c #040404",
"+  c gray2",
"@  c #060606",
"#  c #070707",
"$  c gray3",
"%  c #090909",
"&  c gray4",
"*  c #0B0B0B",
"=  c #0C0C0C",
"-  c gray5",
";  c #0E0E0E",
":  c gray6",
">  c #101010",
",  c #111111",
"<  c gray7",
"1  c #131313",
"2  c gray8",
"3  c #151515",
"4  c #161616",
"5  c gray9",
"6  c #181818",
"7  c #191919",
"8  c gray10",
"9  c #1B1B1B",
"0  c gray11",
"q  c #1D1D1D",
"w  c #1E1E1E",
"e  c gray12",
"r  c #202020",
"t  c gray13",
"y  c #222222",
"u  c #232323",
"i  c gray14",
"p  c #252525",
"a  c gray15",
"s  c #272727",
"d  c #282828",
"f  c gray16",
"g  c #2A2A2A",
"h  c gray17",
"j  c #2C2C2C",
"k  c #2D2D2D",
"l  c gray18",
"z  c #2F2F2F",
"x  c gray19",
"c  c #313131",
"v  c #323232",
"b  c gray20",
"n  c #343434",
"m  c #353535",
"M  c gray21",
"N  c #373737",
"B  c gray22",
"V  c #393939",
"C  c #3A3A3A",
"Z  c gray23",
"A  c #3C3C3C",
"S  c gray24",
"D  c #3E3E3E",
"F  c #3F3F3F",
"G  c gray25",
"H  c #414141",
"J  c gray26",
"K  c #434343",
"L  c #444444",
"P  c gray27",
"I  c #464646",
"U  c gray28",
"Y  c #484848",
"T  c #494949",
"R  c gray29",
"E  c #4B4B4B",
"W  c #4C4C4C",
"Q  c gray30",
"!  c #4E4E4E",
"~  c gray31",
"^  c #505050",
"/  c #515151",
"(  c gray32",
")  c #535353",
"_  c gray33",
"`  c #555555",
"'  c #565656",
"]  c gray34",
"[  c #585858",
"{  c gray35",
"}  c #5A5A5A",
"|  c #5B5B5B",
" . c gray36",
".. c #5D5D5D",
"X. c gray37",
"o. c #5F5F5F",
"O. c #606060",
"+. c gray38",
"@. c #626262",
"#. c gray39",
"$. c #646464",
"%. c #656565",
"&. c gray40",
"*. c #676767",
"=. c #686868",
"-. c DimGray",
";. c #6A6A6A",
":. c gray42",
">. c #6C6C6C",
",. c #6D6D6D",
"<. c gray43",
"1. c #6F6F6F",
"2. c gray44",
"3. c #717171",
"4. c #727272",
"5. c gray45",
"6. c #747474",
"7. c gray46",
"8. c #767676",
"9. c #777777",
"0. c gray47",
"q. c #797979",
"w. c gray48",
"e. c #7B7B7B",
"r. c #7C7C7C",
"t. c gray49",
"y. c #7E7E7E",
"u. c gray50",
"i. c #808080",
"p. c #818181",
"a. c gray51",
"s. c #838383",
"d. c #848484",
"f. c gray52",
"g. c #868686",
"h. c gray53",
"j. c #888888",
"k. c #898989",
"l. c gray54",
"z. c #8B8B8B",
"x. c gray55",
"c. c #8D8D8D",
"v. c #8E8E8E",
"b. c gray56",
"n. c #909090",
"m. c gray57",
"M. c #929292",
"N. c #939393",
"B. c gray58",
"V. c #959595",
"C. c gray59",
"Z. c #979797",
"A. c #989898",
"S. c gray60",
"D. c #9A9A9A",
"F. c #9B9B9B",
"G. c gray61",
"H. c #9D9D9D",
"J. c gray62",
"K. c #9F9F9F",
"L. c #A0A0A0",
"P. c gray63",
"I. c #A2A2A2",
"U. c gray64",
"Y. c #A4A4A4",
"T. c #A5A5A5",
"R. c gray65",
"E. c #A7A7A7",
"W. c gray66",
"Q. c #A9A9A9",
"!. c #AAAAAA",
"~. c gray67",
"^. c #ACACAC",
"/. c gray68",
"(. c #AEAEAE",
"). c #AFAFAF",
"_. c gray69",
"`. c #B1B1B1",
"'. c #B2B2B2",
"]. c gray70",
"[. c #B4B4B4",
"{. c gray71",
"}. c #B6B6B6",
"|. c #B7B7B7",
" X c gray72",
".X c #B9B9B9",
"XX c gray73",
"oX c #BBBBBB",
"OX c #BCBCBC",
"+X c gray74",
"@X c gray",
"#X c gray75",
"$X c #C0C0C0",
"%X c #C1C1C1",
"&X c gray76",
"*X c #C3C3C3",
"=X c gray77",
"-X c #C5C5C5",
";X c #C6C6C6",
":X c gray78",
">X c #C8C8C8",
",X c gray79",
"<X c #CACACA",
"1X c #CBCBCB",
"2X c gray80",
"3X c #CDCDCD",
"4X c #CECECE",
"5X c gray81",
"6X c #D0D0D0",
"7X c gray82",
"8X c #D2D2D2",
"9X c LightGray",
"0X c gray83",
"qX c #D5D5D5",
"wX c gray84",
"eX c #D7D7D7",
"rX c #D8D8D8",
"tX c gray85",
"yX c #DADADA",
"uX c gray86",
"iX c gainsboro",
"pX c #DDDDDD",
"aX c gray87",
"sX c #DFDFDF",
"dX c gray88",
"fX c #E1E1E1",
"gX c #E2E2E2",
"hX c gray89",
"jX c #E4E4E4",
"kX c gray90",
"lX c #E6E6E6",
"zX c #E7E7E7",
"xX c gray91",
"cX c #E9E9E9",
"vX c #EAEAEA",
"bX c gray92",
"nX c #ECECEC",
"mX c gray93",
"MX c #EEEEEE",
"NX c #EFEFEF",
"BX c gray94",
"VX c #F1F1F1",
"CX c gray95",
"ZX c #F3F3F3",
"AX c #F4F4F4",
"SX c gray96",
"DX c #F6F6F6",
"FX c gray97",
"GX c #F8F8F8",
"HX c #F9F9F9",
"JX c gray98",
"KX c #FBFBFB",
"LX c gray99",
"PX c #FDFDFD",
"IX c #FEFEFE",
"UX c white",
/* pixels */
". . . . . . . . . . . . . . . . + + + O X       * O       X       + %       O @   o O X     . @ . . . . . . . . . . . . ",
". . . . . . . . . . . . . . . .         . o O O     ; , & X . O ; +   o 1 5 O     . o .       O . . . . . . . . . . . . ",
". . . . . . . . . . . . . . . . O O o X         & #           &               ;     X .       . . . . . . . . . . . . . ",
". . . . . . . . . . . . . . . .       X O + + + +     O < 2 +   % O % 2 2 O                     . . . . . . . . . . . . ",
". . . . . . . . . . . . . . . .   X ; w l A I W ) =.5. .k +                 = 9       . X .     . . . . . . . . . . . . ",
". . . . . . . . . . . . . . . . = > 6 y j n C S L D ( c.2XiX].a.w 2 O     O         . o + + .   . . . . . . . . . . . . ",
". . . . . . . . . . . . . . . . X .               & =     u i.4XDX].E     : >   o . X + % $ o   . . . . . . . . . . . . ",
". . . . . . . . . . . . . . . .   . o + @ # # @     @ +       . / $XUX<X) &   # O X o # * & O   . . . . . . . . . . . . ",
". . . . . . . .   . O O X X + #       + % # + # X @ & = % # @ @ %   O.KXUX.Xi   + 3   . @ j 1 * %   5   0     X . . . . ",
". . . . . . . .   & &       o   + * * .     X *             X o O < + z <XBXUX'   # #   %   $.o   <   ; $   :   . . . . ",
". . . . . . . . +     O > : .       & d o.S.{.{.0X2X+XY.i.~ w       o + 1 rXxXUX3.-   *   # p -.X     2     *   . . . . ",
". . . . . . . . O     < =     7 c k.gXUXGXAXKXUXmXZXIXUXUXJXiX-Xe.  + 6   7 jXKXJX1.;   # q   j.`   3     O     . . . . ",
". . . . . . . .   X #       I Z.UXUXHXZXUXUXUXBXUXUXFXFXPXUXIXHXsXjX`   e   S UXUXZX8.  5   $ : D.r ,   * >   @ . . . . ",
". . . . . . . .   o     f B.BXUXbXSXUXUXPXJXPXUXUXUXGXDXJXUXUXUXUXPXSX$Xv $   c.PXUXjXQ   . q   y.j.  O . X     . . . . ",
". . . . . . . . @   * ( oXUXUXsXsX|.B.b.K..XdXUXCXFXIXUXUXUXUXIXKXUXKXUXJXU k   gXcXUX3X< 2   3 d =X9 O         . . . . ",
". . . . . . . .   o ` iXUX2X%.x           d G.UXUXUXUXLXHXJXIXUXIXUXHXCXJXPX>.@ v.nXUXPXP.  O X   1Xq.  ; @   : . . . . ",
"%   2 +   +   2   :.SXbX` ,   >     q &.=XUXUXPXUXUXUXUXUXUXUXUXUXBXUXUXNXUXlX[ b MXUXPXKXV   $   } jXX +   7   . . . . ",
"  . X   &   :   =.UX|.  e       = 1.aXUXUXmXCXUXUXUXUXUXUXUXUXUXUXMXUXUXAXUXUX0X{ yXGXUXGXZ.& %   M VXn     %   . . . . ",
"O   O     r   W KXC.  o   & 0 r <XhXLXUXUXUXUXPXUXUXUXUXUXUXUXUXUXAXUXUXGXDXUXUX#XnXLXUXVXGXj   X % BXp.  X   @ . . . . ",
"%   &     O 3 fXD.  2 2 * $ z BXUXUXUXHXFXLXUXUXUXUXUXUXUXUXUXUXUXPXSXIXUXSXNXLXUXUXUXUXMXUX=.  @   6X>X      o . . . . ",
". +     5   {.!.  d   o 1 V UXUXBXUXUXUXHXHXUXUXUXUXUXUXUXUXUXUXKXUXLXKXUXUXFXHXUXIXSXLXKXUX].. $   U.SX&   *   . . . . ",
".     3   0.2X+ @ &     m UXUXcXUXUXNXmXIXUXUXHXUXUXUXUXUXUXUXUXVXUXUXKXLXUXUXUXAXPXKXUXUXBXzX, @   c.UX8   =   . . . . ",
"O   & ; # 5XI     $ , r KXLX0XUXbXIXUXUXUXIXGXZXUXUXUXUXUXUXUXUXHXUXUXLXCXDXIXUXPXUXUXUXUXBXLXv . O D.UXs o   O . . . . ",
"  ; ,   A.1.  6 ,   = `.GXUXUXSXUXUXKXDXJXUXUXLXUXUXUXUXUXUXUXUXUXCXSXUXUXUXUXHXUXLXSXSXUXJXUX[   o `.HXl 2   ; . . . . ",
"$   1 r {.X   + @   :.UXGXUXdXUXUXUXUXUXUXUXUXUXUXUXmXUXZXFXAXKXUXUXUXAXUXUXBXUXUXUXUXZXPXUXPX&.    tXNXv . ;   X   1   ",
"o %   q...$   & %   iXHXSXCXUXDXUXUXUXUXUXUXUXUXnXUXmXb.d > > C n.dXUXUXJXUXPXJXPXUXPXUXUXFXUX5.$ 8 lXUXU   @ @ X   :   ",
". & , `.:   o %   &.UXUXcXUXUXSXUXUXUXUXUXUXUXUXUXgX..+ . >     = 5.pXUXDXUXUXPXUXUXGXUXUXkXUX,.   .JXUXF   @ #   % =   ",
"o   { p.    > o   sXKXUXUXUXBXUXUXUXUXUXUXUXUXUXDX5.#   % -   3   & &.FXUXUXUXUXUXUXCXUXPXnXUX{   (.UXbX3 $ %     0 :   ",
". . m.g $   &   M UXHXBXUXjXFXUXUXUXUXUXUXUXUXUXeX9   1       & 1   8 pXUXLXSXPXGXUXSXUXUXUXUXZ m NXUXiX  3       n 3 X ",
"  7 f.  O *   . f.UXZXLXJ.4XUXUXUXUXUXUXUXUXUXUX{.    , . , 0   =   . .XCXLXLXUXDXUXUXFXUXIXrXa Y.UXLX*X  =   *   E 3 o ",
". k `   O X =   >XUXNXOXB CXDXUXUXUXUXUXUXUXUXUXC.  > &     #     +   ~.MXUXLXUXUXUXUXmXUXDX,X3.DXLXJXi.o     & % ..:   ",
"% x n   ;   i   NXDXUXc A UXDXUXUXUXUXUXUXUXUXUX).o +   % O   # + 1   XXUXUXNXUXUXDXUXcXUXUXCXCXUXcXIXN     >   3 *.#   ",
"$ c i   # $   k UXCX-X@ 5.UXcXUXUXUXUXUXUXUXUXUXjXl   6 O   @ @ q   S bXUXAXUXIXLXUXUXPXUXUXUXFXUXKX{.<     .   ,.y & = ",
"  0 3   $ &   S UXVX&.  i.UXHXKXUXUXUXUXUXUXUXUXUXb.5     , *     - B.KXFXHXUXDXUXUXPXLXUXUXUXUXkXUX<.  >   + = z.r     ",
"  $ +   % $ X T UXcX;   l.UXUXFXUXUXUXUXUXUXUXUXHXBXu., O     % s j.SXUXAXHXUXSXUXIXLXUXUXIXIXUXSXMX  + .   X :.8.>   . ",
"        % X   Y HX6X  X l.SXGXUXUXUXUXUXUXUXUXUXFXUXSX'.f.Y H k.;XBXUXUXIXHXKXUXIXIXUXUXUXGXDXJXUXI o     <   +Xa     ; ",
"$       $     J LXP.&   d.AXCXUXUXUXUXUXUXUXUXUXUXLXUXUXUXkXkXIXUXUXFXCXUXUXLXUXPXUXUXUXIXUXUXUXF.o @   9   n.*.    = = ",
"+   . . + X O C UXr.&   >.UXGXUXUXUXUXUXUXUXUXUXUXvXCXIXGXUXUXIXZXUXUXAXUXUXUXHXIXUXPXSXIXUXKXpX$ d   *   b sX#   % #   ",
"o   O .   X o g UXr.o   B GXIXLXUXUXUXUXUXUXUXUXUXUXUXLXcXFXUXAXAXUXUXUXUXUXUXVXJXUXPXSXUXUX Xo.    ,   % rXK > $ =     ",
"O   %         8 JXn.o + @ pXPXGXUXUXUXUXUXUXUXUXHXKXJXUXUXPXSXUXUXSXFXUXUXJXUXUXZXUXUXKXUXbX-.  *   $   oXoX      o   X ",
". . . . . . . . 8X@X  $ , H.mXUXUXnXUXHXUXvXUXSXDXUXUXGXZXLXUXUXPXUXUXUXUXPXUXUXUXBXJXUX2XQ o +   m   !.BX#   $ . . . . ",
". . . . . . . . U.5X# +   W UXAXUXaXMXNXUXKXUXUXUXUXUXUXUXUXGXlXHXIXUXUXIXKXLXIXZXUXZXQ.Z     ;     &XKXZ   o $ . . . . ",
". . . . . . . . ( ZX8 +   + eXPXAXUX9X>.JXUXgXUXKXBXnXSXUXUXUXUXUXUXLXHXHXLXUXUXUXhX6.    < t   c iXUXQ   0 >   . . . . ",
". . . . . . . . & GXD X *   ' UXiXUXjXO J.JXUXSXUXUXUXUXIXFXIXUXFXFXIXUXUXUXMXrX` *   - >   p w.IXUX] X -   *   . . . . ",
". . . . . . . .   Q.m.  ; $ + XXUXZXPX_ * b.UXPXLXPXUXUXUXHXGXPXUXUXUXIXpXB.v   % O     B N.sXUXUXV + < ;     0 . . . . ",
". . . . . . . .   n 2X6   @ ; N UXLXGX8X  ; l.bXUXIXDXCXJXUXUXLXLXJXIXUXUXiXH.,.*.h.[.sXPXUXAXsXS   7     s   * . . . . ",
". . . . . . . . *   B.@.    7   s.KXDXKX3.    9.dXIXUXUXKXUXUXJXUXUXKXLXUXUXLXSXUXUXGXlXUXUXG., $     *   o 9   . . . . ",
". . . . . . . . $   k ~.#   o @   |.UXPXkXy *   5 a.lXUXGXKXUXKXJXUXUXUXHXFXLXUXJXZXUXUX+XM   o   2 X   ; o   O . . . . ",
". . . . . . . .     % $. .    * o   !.UXUX X  o     p 6.:XSXIXHXUXUXLXLXUXUXUXIXUXtXz.G ;       . . . . . . . . . . . . ",
". . . . . . . . -     g P k X     1 : L.UXHX;X+     + * 1 x 1.!.&X5XdXxXaX#XZ.r.z e &       $ ; . . . . . . . . . . . . ",
". . . . . . . . ,       t E >     e   O S.PXUXOX< = +               O = : * X         X O O     . . . . . . . . . . . . ",
". . . . . . . . . . =   + x 0 % + $   &   E jXAXMXE   @ l >   w %           $ ; # + O + @ O     . . . . . . . . . . . . ",
". . . . . . . .   > o o . O 0 ; =   l     r   N.VXUX*Xj     <   o @ & : > &               X o o . . . . . . . . . . . . ",
". . . . . . . .   =   + $   <   @     9     6   3 7.zXUX;X` =   $ .         . o : = % # $ @ X   . . . . . . . . . . . . ",
". . . . . . . . o       +   o     %     - =   @ &     H J.rXwX@X:.' B e < < 6 0 O .     O @ @ O . . . . . . . . . . . . ",
". . . . . . . . o   ,     -   - X o @ &     +     + $ O   % k ~ d.h.l.g.0...D f 0 1 @           . . . . . . . . . . . . ",
". . . . . . . . . . . . . . . . . . . . . . . . . . . . . . . . . . . . . . . . . . . . . . . . . . . . . . . . . . . . ",
". . . . . . . . . . . . . . . . . . . . . . . . . . . . . . . . . . . . . . . . . . . . . . . . . . . . . . . . . . . . ",
". . . . . . . . . . . . . . . . . . . . . . . . . . . . . . . . . . . . . . . . . . . . . . . . . . . . . . . . . . . . ",
". . . . . . . . . . . . . . . . . . . . . . . . . . . . . . . . . . . . . . . . . . . . . . . . . . . . . . . . . . . . "
};
