/* XPM */
static char *bdc197086ced4e7dbdebafbbb0926570lkllzOQGylp0uHmJ[] = {
/* columns rows colors chars-per-pixel */
"60 60 157 2 ",
"   c #00224F",
".  c #002250",
"X  c #002350",
"o  c #012350",
"O  c #012351",
"+  c #002353",
"@  c #012353",
"#  c #002451",
"$  c #022451",
"%  c #002552",
"&  c #022452",
"*  c #032552",
"=  c #032553",
"-  c #002653",
";  c #012653",
":  c #002355",
">  c #022356",
",  c #002454",
"<  c #002554",
"1  c #012555",
"2  c #022454",
"3  c #032555",
"4  c #012754",
"5  c #002655",
"6  c #022754",
"7  c #002456",
"8  c #002556",
"9  c #012557",
"0  c #032457",
"q  c #012756",
"w  c #002657",
"e  c #022656",
"r  c #032757",
"t  c #002856",
"y  c #002957",
"u  c #022857",
"i  c #002458",
"p  c #002559",
"a  c #012559",
"s  c #002758",
"d  c #012758",
"f  c #002659",
"g  c #022658",
"h  c #032759",
"j  c #01265A",
"k  c #00275A",
"l  c #02275B",
"z  c #042558",
"x  c #002859",
"c  c #002959",
"v  c #032958",
"b  c #022859",
"n  c #012A58",
"m  c #022B59",
"M  c #00285A",
"N  c #01295A",
"B  c #00285B",
"V  c #00295B",
"C  c #03295A",
"Z  c #002A5A",
"A  c #012B5B",
"S  c #022A5B",
"D  c #042A59",
"F  c #04285A",
"G  c #05295B",
"H  c #052B5A",
"J  c #042A5B",
"K  c #002C5B",
"L  c #00285C",
"P  c #01295C",
"I  c #00295D",
"U  c #01295D",
"Y  c #03285C",
"T  c #002A5C",
"R  c #002B5C",
"E  c #002A5D",
"W  c #012B5D",
"Q  c #032B5C",
"!  c #022A5D",
"~  c #012A5E",
"^  c #002B5E",
"/  c #022A5E",
"(  c #032B5E",
")  c #022B5F",
"_  c #032B5F",
"`  c #04295D",
"'  c #05295D",
"]  c #052B5C",
"[  c #062A5C",
"{  c #072B5D",
"}  c #052A5E",
"|  c #062B5F",
" . c #002C5D",
".. c #022C5C",
"X. c #032D5D",
"o. c #012D5E",
"O. c #012C5F",
"+. c #022C5E",
"@. c #032D5F",
"#. c #022E5F",
"$. c #042C5D",
"%. c #062C5D",
"&. c #052D5E",
"*. c #042C5F",
"=. c #072D5E",
"-. c #062E5F",
";. c #082C5E",
":. c #092D5F",
">. c #082E5F",
",. c #032C60",
"<. c #022D60",
"1. c #032F60",
"2. c #032E61",
"3. c #042C60",
"4. c #052D60",
"5. c #042D61",
"6. c #072C60",
"7. c #042E60",
"8. c #052F61",
"9. c #062E61",
"0. c #052E62",
"q. c #042F62",
"w. c #072F62",
"e. c #062F63",
"r. c #082D61",
"t. c #0A2E60",
"y. c #0B2F61",
"u. c #092E62",
"i. c #0A2F63",
"p. c #053063",
"a. c #063062",
"s. c #063164",
"d. c #073265",
"f. c #083063",
"g. c #0B3162",
"h. c #0C3062",
"j. c #0C3263",
"k. c #093164",
"l. c #0B3064",
"z. c #083264",
"x. c #0A3265",
"c. c #0C3165",
"v. c #0F3365",
"b. c #0D3266",
"n. c #0E3367",
"m. c #0E3465",
"M. c #0F3468",
"N. c #103569",
"B. c #12376B",
"V. c #13376B",
"C. c #15396D",
"Z. c #153A6E",
"A. c #173B6F",
"S. c #193D71",
"D. c #1B3F73",
"F. c #1B4074",
"G. c #1C4074",
/* pixels */
"S.u.u.4.x.s.#.s.5.e.,.,.q.q.#.#.#.#.$.x.z.4.u.u.u.u.c.N.x.4.$.6.L } u.u.} j j j j j ^ j L j l ^ j C ^ ^ C } C C H C 7 7 ",
"S.c.c.x.s.z.s.s.5.5.,.,.^ ,.^ #.^ } $.4.s.4.6.u.} } i.u.4.4.^ ^ } } 6.} } l j } } j } z z j j j C ^ C ^ ^ ^ C C 7 C C 7 ",
"S.N.N.x.z.s.4.q.5.e.,.,.,.^ ^ #.4.^ $.4.4.4.6.u.} } u.u.u.4.j } ^ } $.4.4.^ } ^ C } ^ } } ^ C ^ ^ C ^ C ^ ^ 7 7 7 7 C j ",
"G.M.N.x.s.4.q.q.e.,.,.,.,.,.^ #.4.^ #.} } 4.6.u.} u.u.u.4.$.^ 4.} $.4.z.u.^ j C ^ ^ ^ j ^ ^ } $.^ #.#.^ ^ C C 7 u 7 C G ",
"S.u.i.4.4.4.p.q.e.5.,.,.,.,.^ ^ 4.#.^ } $.4.4.4.4.4.4.4.4.4.^ } #.C #.$.#.^ j C ^ C C C #.^ 4.s.#.} ^ ^ C ^ j j u C j C ",
"D.u.x.e.s.4.q.q.6.e.,.,.4.,.^ q.q.$.#.$.^ 4.6.4.4.4.4.4.4.4.j ^ } ^ ^ ^ ^ C ^ #.C ^ ^ ^ #.#.4.$.^ ^ } j j C j j 7 j j j ",
"D.u.x.x.4.,.q.#.,.,.,.,.q.,.,.q.#.q.#.^ } ^ $.4.4.4.4.4.} } C ^ ^ ^ ^ j C ^ ^ C j ^ ^ ^ } ^ ^ ^ G #.^ C j j j j j j l l ",
"Z.} x.e.4.^ q.^ ,.q.q.,.,.6.,.q.$.4.#.^ ^ } $.4.$.^ u.$.^ ^ ^ j j j ^ ^ C j C j j C j j j C ^ j ^ } } ^ L j j j j j l L ",
"Z.} 4.4.4.s.^ q.4.,.,.,.,.^ 6.4.#.#.^ q.4.$.$.^ u.4.$.#.^ L j j j j C j j j j j j j i j j } } C C j j C j j j j j j j j ",
"Z.} u.4.4.$.C ,.,.,.,.,.^ ^ ,.,.^ C ^ } #.^ ^ ^ 4.$.} } ^ j j C j C j j j j j j j j j j j j j j j j j j j j j j j 7 j L ",
"Z.} 6.6.^ ^ C ^ L L L ^ C L ^ ^ C ^ ^ j ^ C C ^ ^ } ^ ^ C j ^ j 7 7 7 C j C 7 G 7 7 7 O O > 7 7 j j j j j j 7 u i i j j ",
"V.} } ,.^ #.C C L L L L C j j C ^ C C ^ j ^ ^ C ^ j C L ^ j j j z j 7 7 7 z j 7 7 7 7 > > j 7 7 > i j j C j 7 7 i i > j ",
"v.} $.$.} $.C ^ L L j i j L j ^ j ^ C ^ C ^ C ^ ^ j ^ j j j j j 7 C 7 z C 7 7 7 j 7 7 7 7 C j G j i 7 C 7 C 7 7 > > 7 j ",
"y.G ;.$.^ ^ ^ C ^ L j j j l ^ ^ L j j j ^ j ^ C ^ ^ C L j j j j j 7 C 7 7 u j 7 7 7 7 7 7 j 7 7 j j C C G j G G j 7 j 7 ",
"y.G G $.C } ^ C z l l l j l ^ C j j ^ C C L j ^ j C j C j j j j u C 7 u C 7 C 7 u C 7 7 7 u u 7 j 7 7 7 7 7 C 7 7 j j j ",
":.z u C j ^ } j i j } l l j j j j j j ^ j ^ C ^ j L j j j i j i 7 7 C j u C 7 C 7 7 u C u 7 7 u 7 C C u 7 7 7 7 C 7 j j ",
"y.G ;.} $.^ ^ C L j j j ^ j j j 7 7 C 7 u u C u 7 C C 7 7 7 z 7 7 7 7 G C 7 7 7 7 C 7 7 7 7 u j 7 7 7 C C j u C i j j L ",
"v.} 6.^ } j ^ ^ z C j j j C j j j C C u 7 C 7 j 7 7 7 7 > z z z C 7 z 7 C G j 7 u 7 u 7 7 7 7 7 7 7 u 7 7 7 7 u j j j z ",
"c.;.} ^ ^ C #.^ ^ ^ ^ } C ^ ^ C C C C C C 7 7 u C 7 j C z 7 z > 7 7 7 7 7 j u u C 7 7 7 7 z 7 G u 7 u C 7 j u 7 i j z ^ ",
"j.H 6.C #.^ C ^ ^ } } } ^ ^ C #.C C u C C C C C u C 7 7 C G 7 7 G 7 j C u C 7 C 7 u C 7 j 7 7 7 7 C C 7 D 7 7 7 j j L j ",
"j.H 4.$.4.#.#.#.^ $.4.u.4.#.#.} C C u C C C C C u C C 7 7 C u 7 C u j 7 7 u C 7 C 7 7 7 7 j 7 7 u 7 C 7 7 7 7 7 i j l l ",
"z.{ 4.#.$.Z #.C C ^ 4.4.$.^ ^ ^ C C C C j C C C C C C 7 7 C C 7 7 C 7 u C j u u u u C 7 7 7 7 7 C u C 7 7 7 C 7 j L l l ",
";.$.$.#.^ ^ ^ C ^ ^ ^ } ^ C ^ ^ C C u 7 u C C C 7 C C u C 7 u u C u 7 u 7 C u j j C 7 7 7 7 z 7 u C u 7 7 7 j 7 j l l l ",
"$.C ;.G $.^ ^ ^ j C } ^ } ^ G ^ j C C C 7 C C C u C C C C ^ C C C C C j C u C 7 u 7 j 7 D 7 > > 7 7 C u 7 7 u j i j j l ",
"H ;.H C ^ } } C } l l l } } ^ C } z j j L j C ^ ^ ^ ^ j ^ ^ ^ ^ u C C C u C C u C C u 7 7 z z u j 7 j 7 7 7 u 7 j j j L ",
";.;.H C ^ ^ ^ C l l l } } } ^ j L L j ^ j ^ C ^ ^ C C ^ j C j j j C 7 C C 7 j u C G 7 z 7 j z 7 7 u u C C 7 7 C j j j j ",
";.;.G G j L j C j l l L j j ^ ^ j j C j ^ j j j j j ^ j ^ j C L C u C 7 7 7 C C 7 C j 7 u j 7 7 7 7 u 7 j 7 7 u j j j j ",
"z.;.G C ^ C j j j j j i j j j C l j j ^ j C ^ j ^ ^ C j j L C j j u u u 7 u u 7 u u u 7 z 7 z 7 7 C C u 7 7 7 C j j j C ",
";.;.$.Z C C C C j j j j j C C Z ^ G j ^ C j ^ ^ ^ C C j j j j j 7 G 7 7 7 u 7 C j C 7 j 7 7 z j 7 C C 7 7 7 C 7 j j j j ",
";.;.Z C C C C ^ C j ^ C C C u C j ^ j j j j C ^ ^ ^ j j j C j j 7 7 7 j C 7 u 7 u 7 u 7 7 j u 7 C 7 u C u 7 u C j j j j ",
"$.;.#.C C C #.C C ^ j ^ ^ ^ Z Z C j C j j ^ ^ C ^ G ^ j l } C j 7 j 7 j 7 7 7 7 7 C C 7 7 7 7 j C 7 C 7 7 C 7 C j j j j ",
"$.;.Z C C #.^ ^ ^ ^ C C ^ #.p.4.^ ^ ^ ^ ^ z ^ ^ ^ j j ^ } l ^ j C G 7 7 7 C j C u C C C C 7 C 7 C u u C 7 7 7 7 j j j j ",
">.z.$.^ ^ #.^ C #.C C Z #.^ #.#.^ C ^ ^ ^ #.C ^ C ^ C ^ j ^ j j j C j ^ j 7 u C C C u C 7 u C C C u 7 7 j 7 G 7 G D 7 G ",
"H ;.$.C L q.$.^ #.Z C C #.#.^ #.#.^ ^ C ^ ^ #.#.#.#.^ #.^ C ^ L ^ j j j u C C 7 7 u C j 7 C u j 7 u j 7 7 G 7 z 7 7 z 7 ",
"G } $.^ C ^ #.C C C Z C ^ ^ ^ ^ #.^ ^ ^ $.#.^ ^ ^ ^ ^ C } ^ j ^ ^ C 7 C u 7 7 C C C u u j u 7 C D z 7 7 7 7 7 7 7 7 7 C ",
"G G } ^ C ^ ^ ^ 7 C #.C C ^ #.^ #.C C C C #.C ^ ^ #.C #.^ j ^ C ^ C C 7 j u u 7 C 7 7 C u C 7 u 7 j 7 C D 7 j 7 7 7 u 7 ",
"C H ^ C C ^ C C C C C C ^ ^ ^ ^ C ^ C ^ } ^ #.^ C #.^ ^ C ^ j ^ ^ j C C 7 C 7 C C C 7 u 7 j u 7 7 z 7 7 G 7 7 7 j 7 C C ",
"C $.^ ^ C ^ ^ ^ C 7 C C C #.^ C #.C ^ ^ Z ^ ^ ^ ^ C ^ C G ^ ^ j j ^ C C C 7 u C u 7 u 7 C u u 7 7 7 G z 7 7 7 7 7 G u C ",
"u u C C ^ C #.C C u C C C ^ ^ ^ ^ ^ C ^ ^ C C C C C ^ ^ ^ j ^ ^ C C C C C j u C 7 u 7 u C 7 7 C - 7 7 z D 7 G 7 7 7 u 7 ",
"u u C C ^ ^ ^ #.C C 7 j ^ C j ^ C ^ #.#.C ^ ^ C j ^ j ^ j ^ G C C C C C C u 7 7 u u u u C u C 7 7 - G j 7 7 7 7 G 7 7 C ",
"H H Z ^ C C ^ ^ C C u C C C ^ ^ C #.^ ^ } C ^ j ^ ^ j C ^ C ^ C C C C C C u - 7 u u t - D j 7 u - z 7 - 7 6 7 z j 7 u 7 ",
"C H C C ^ #.^ C C C j C ^ j L ^ ^ ^ C ^ ^ ^ C j C j ^ #.^ ^ j C j C u C C 7 u - u - t u 7 u j u z z D - 6 7 7 z u u C C ",
"G m C C ^ #.} ^ C C 7 C C C ^ ^ ^ C j ^ L ^ j ^ j } C C j 7 7 C u C C C 7 C D - - 7 D 7 u 7 u 7 7 - 6 t z z - 7 C C C C ",
"D D C C #.^ ^ j C 7 u C C C j ^ G ^ ^ } } j C j L } C C 7 C C C C C C C 7 C D 7 7 7 - z 7 u 7 C - - z z 7 - 7 6 C 7 u G ",
"u u Z Z #.^ C ^ C 7 7 u C C C ^ C ^ ^ ^ ^ j z L G C u C u 7 C #.C C Z C C C 7 - z - z - u 7 6 7 7 z - z 7 - 7 O 7 7 C C ",
"- 7 C C C C j C C C u C C C j ^ ^ C ^ C j j ^ L G j C C C C C C 7 C C u 7 u D 7 - D 7 u - 7 z - - 7 - 7 7 7 7 > u C C C ",
"- u u C C j j ^ C 7 u u C C C ^ C ^ ^ C } j j C C C C C C C C u u C 7 C u u 6 z z - - z 7 7 O - 7 7 7 > - - - - - u C C ",
"u 7 C u j j j C u C 7 u C 7 j j C j j j } j j u C C 7 7 C 7 7 u C 7 C 7 7 - - 7 6 7 7 7 - 7 > O 7 O - O - 7 7 - - 7 C C ",
"7 u C C C C C ^ j j 7 C 7 C u 7 u 7 u C 7 7 j 7 > - z D - 7 7 t 7 - - > - 7 7 - O 7 - O O 6 O O z 6 $ O O O > > - - 7 7 ",
"u u C C 7 C j j L j u 7 7 u u 7 u C 7 C j 7 7 D 6 6 7 z - D - t u 7 7 - O > > - > O O O O O O O $ $ $ O O $ > O z z G G ",
"u C 7 7 j C } j G j u C C 7 C u C 7 C 7 7 u z C 7 z - 7 7 7 D u u - 7 - - 7 O > O > - - $ 2 O O O O O $ $ $ O 6 - 7 - z ",
"7 u C u u 7 } } j ^ 7 7 C C C 7 7 C u C G z j 7 - 7 7 - D - u u u u u 7 7 7 O - O O 6 - $ $ $ $ O O O O O $ $ $ 7 - z D ",
"G #.C C 7 u ^ l j j C C 7 C j C j u u C G C u C - 7 7 u - 6 t t u u u u 7 6 7 6 O 7 - 6 - O 6   2 O O O O O O O - 6 6 z ",
"C C C C C C j } j j 7 C C C u C u C 7 C G C u 7 - - u u D D t t - 7 - - 7 7 6 7 - z - - 6 6   6 $ O O O O O O 2 6 - O 7 ",
"C C C C u C G G j u u C u C C u C 7 C C C u C 7 - u m u u u m t 7 u 7 u u - 7 - 7 7 6 - - - -   O O O O O 2 $ $ - 6 D z ",
"#.Z C C C j C C u C 7 7 C 7 7 7 C C 7 u j C j u t t u u m u t t t u u u u u 7 u O O - 6 -       O O O $ $ $ $ 2 -   - D ",
"C C 7 C C C 7 u u 7 u u C 7 C u u C C C C C C C u u m m m m t t u D u u t - 7 7 u - - - 6     - O $ O O     $ $ 2 - z 6 ",
"C C C u u u C 7 j 7 C 7 u u 7 C 7 C u j u j C 7 u m u u m t t m u u u u u u t - 7 D 6 6 6 - - - $ $ O       . $ z - z z ",
"C C C 7 7 u u u 7 - 7 u z 7 u 7 7 u C 7 u C C 7 u m m m m t m u u m u u u 7 t t u z - 6 6 6 - - $   $     $ $ $ - - u D ",
"#.C C C u - u 7 7 - - u 7 7 j 7 C 7 C C C 7 C u m m m u m t t t u u u u u u - t u - - - 6 - - - 6 6 $ $     $ $   - z - "
};
